# xmcd CD database file
#
# Track frame offsets:
#	150
#	12997
#	25400
#	38242
#	55025
#	66605
#	82872
#	94697
#	105662
#	119685
#	130630
#	145310
#
# Disc length: 2134 seconds
#
# Revision: 0
# Processed by: cddbd v1.4PL0 Copyright (c) Steve Scherf et al.
# Submitted via: CDex 1.50beta10
#
DISCID=a108540c
DTITLE=Lynn Anderson - I Never Promised You A Rose Garden
DYEAR=1900
DGENRE=Country
TTITLE0=Rose Garden
TTITLE1=Stand By Your Man
TTITLE2=Top Of The World
TTITLE3=Blue Bayou
TTITLE4=Listen To A Country Song
TTITLE5=The Devil Went Down To Georgia
TTITLE6=Rodeo Cowboy
TTITLE7=Someday Soon
TTITLE8=Two Doors Down
TTITLE9=Heavens Just A Sin Away
TTITLE10=Gone At Last
TTITLE11=Faithless Love
EXTD=
EXTT0=
EXTT1=
EXTT2=
EXTT3=
EXTT4=
EXTT5=
EXTT6=
EXTT7=
EXTT8=
EXTT9=
EXTT10=
EXTT11=
PLAYORDER=
